<?xml version="1.0" encoding="UTF-8"?>
<svg version="1.1" xmlns="http://www.w3.org/2000/svg" width="256" height="256">
<path d="M0 0 C0.72419128 0.00202423 1.44838257 0.00404846 2.19451904 0.00613403 C2.95383728 0.00438171 3.71315552 0.00262939 4.4954834 0.00082397 C7.0175807 -0.00359473 9.53960847 -0.00065649 12.06170654 0.00271606 C13.80666111 0.00204303 15.55161558 0.00107301 17.29656982 -0.00018311 C20.95852549 -0.0016601 24.62045682 0.00049454 28.28240967 0.00515747 C32.98715147 0.01085476 37.69183622 0.00757577 42.39657593 0.00158501 C46.00124546 -0.00202055 49.60590136 -0.00088204 53.21057129 0.0017128 C54.94580085 0.00238208 56.68103163 0.0015536 58.41625977 -0.00076675 C60.83717142 -0.0032932 63.25798941 0.00054718 65.67889404 0.00613403 C66.40308533 0.0041098 67.12727661 0.00208557 67.87341309 0 C72.82244388 0.0212659 72.82244388 0.0212659 73.93670654 1.13552856 C74.00897156 2.98840358 74.02051874 4.84386734 73.99920654 6.69802856 C73.99018311 7.70994263 73.98115967 8.72185669 73.97186279 9.76443481 C73.95446045 10.93812622 73.95446045 10.93812622 73.93670654 12.13552856 C74.72375473 12.13330795 75.51080292 12.13108734 76.32170105 12.12879944 C83.72360985 12.10879744 91.12550562 12.0935549 98.52743435 12.08371639 C102.33322231 12.07848837 106.13898803 12.07139218 109.94476318 12.06008911 C113.61463198 12.04925737 117.28447932 12.04325112 120.95436287 12.04065132 C122.35745647 12.03879759 123.76054884 12.03517796 125.16363335 12.02979851 C127.12240335 12.02258437 129.08119475 12.02212048 131.03997803 12.02200317 C132.15694565 12.01978256 133.27391327 12.01756195 134.42472839 12.01527405 C136.93670654 12.13552856 136.93670654 12.13552856 137.93670654 13.13552856 C138.02428657 15.13517839 138.04367231 17.13788966 138.03436279 19.13943481 C138.03114014 20.35437622 138.02791748 21.56931763 138.02459717 22.82107544 C138.01621826 24.10046997 138.00783936 25.3798645 137.99920654 26.69802856 C137.99469482 27.98129028 137.99018311 29.264552 137.98553467 30.58670044 C137.973702 33.76968879 137.95721723 36.95258619 137.93670654 40.13552856 C138.7229541 40.28103149 139.50920166 40.42653442 140.3192749 40.57644653 C145.60640728 41.70577525 148.99321792 44.99850382 152.37420654 49.07302856 C155.17039462 54.65319429 154.82917004 61.11310314 153.93670654 67.13552856 C151.34163266 73.6277982 147.2643503 77.38956995 140.93670654 80.13552856 C139.94670654 80.13552856 138.95670654 80.13552856 137.93670654 80.13552856 C137.94194336 81.31171753 137.94718018 82.48790649 137.95257568 83.69973755 C137.97062317 88.04754887 137.98213762 92.39535686 137.99163818 96.74319458 C137.99667898 98.62796586 138.00351153 100.51273321 138.012146 102.39749146 C138.02422271 105.10054492 138.02993723 107.80354687 138.03436279 110.50662231 C138.03952408 111.35453842 138.04468536 112.20245453 138.05000305 113.07606506 C138.05019849 115.09623925 137.99876865 117.1163079 137.93670654 119.13552856 C136.93670654 120.13552856 136.93670654 120.13552856 134.34466553 120.24905396 C133.21875 120.24381714 132.09283447 120.23858032 130.93280029 120.23318481 C129.11038818 120.22835083 129.11038818 120.22835083 127.25115967 120.22341919 C125.97176514 120.21504028 124.69237061 120.20666138 123.37420654 120.19802856 C122.09094482 120.19351685 120.80768311 120.18900513 119.48553467 120.18435669 C116.30254632 120.17252402 113.11964892 120.15603925 109.93670654 120.13552856 C109.93808923 120.9922423 109.93808923 120.9922423 109.93949986 121.86626339 C109.96155611 135.74468034 109.97805483 149.62309423 109.98851871 163.50152493 C109.99368143 170.21294724 110.00072367 176.92435788 110.012146 183.63577271 C110.02297219 190.10666593 110.02898281 196.57754699 110.03158379 203.04844856 C110.03343852 205.52331801 110.03706005 207.99818676 110.0424366 210.47305107 C110.04964347 213.92623229 110.05069763 217.37936258 110.05023193 220.83255005 C110.05382721 221.86688675 110.05742249 222.90122345 110.06112671 223.96690369 C110.05975204 224.90224945 110.05837738 225.83759521 110.05696106 226.80128479 C110.05834375 228.02773036 110.05834375 228.02773036 110.05975437 229.2789526 C109.93670654 231.13552856 109.93670654 231.13552856 108.93670654 232.13552856 C107.46316306 232.22856874 105.98520063 232.25299122 104.50872803 232.24905396 C103.56782822 232.24897842 102.62692841 232.24890289 101.65751648 232.24882507 C100.63461014 232.24366379 99.6117038 232.2385025 98.55780029 232.23318481 C96.99510155 232.23106239 96.99510155 232.23106239 95.40083313 232.22889709 C92.0585956 232.22327936 88.71642397 232.21072386 85.37420654 232.19802856 C83.11444188 232.19301585 80.85467618 232.18845255 78.59490967 232.18435669 C73.04215264 232.17330418 67.4894343 232.15654881 61.93670654 232.13552856 C61.79499023 233.24017456 61.65327393 234.34482056 61.50726318 235.48294067 C60.43182904 242.36765194 56.29871474 247.36081576 50.87420654 251.57302856 C43.32341737 256.99292018 34.90652079 257.22106192 25.93670654 256.13552856 C18.56438952 254.08766272 13.0910846 249.50484028 8.93670654 243.13552856 C4.83413654 235.05587893 4.33934259 225.84462566 6.78045654 217.11990356 C10.05017535 209.91768511 15.50920045 204.52494126 22.68670654 201.19802856 C25.93670654 200.13552856 25.93670654 200.13552856 29.93670654 200.13552856 C29.93670654 196.17552856 29.93670654 192.21552856 29.93670654 188.13552856 C28.88168945 188.14076538 27.82667236 188.1460022 26.73968506 188.15139771 C22.83914025 188.16944757 18.93859915 188.18096051 15.0380249 188.19046021 C13.34726339 188.19550046 11.65650625 188.20233261 9.96575928 188.21096802 C7.54069947 188.22304713 5.1156971 188.22875979 2.69061279 188.23318481 C1.54998131 188.24092674 1.54998131 188.24092674 0.38630676 188.24882507 C-1.43061916 188.24902094 -3.24742473 188.19750133 -5.06329346 188.13552856 C-6.06329346 187.13552856 -6.06329346 187.13552856 -6.16094971 184.63162231 C-6.14934814 183.62228638 -6.13774658 182.61295044 -6.12579346 181.57302856 C-6.11677002 180.5611145 -6.10774658 179.54920044 -6.09844971 178.50662231 C-6.08684814 177.72416138 -6.07524658 176.94170044 -6.06329346 176.13552856 C-6.85034164 176.13774918 -7.63738983 176.13996979 -8.44828796 176.14225769 C-15.85019676 176.16225969 -23.25209253 176.17750222 -30.65402126 176.18734074 C-34.45980923 176.19256876 -38.26557494 176.19966494 -42.0713501 176.21096802 C-45.7412189 176.22179976 -49.41106624 176.22780601 -53.08094978 176.23040581 C-54.48404338 176.23225954 -55.88713575 176.23587917 -57.29022026 176.24125862 C-59.24899026 176.24847276 -61.20778166 176.24893665 -63.16656494 176.24905396 C-64.84201637 176.25238487 -64.84201637 176.25238487 -66.55131531 176.25578308 C-69.06329346 176.13552856 -69.06329346 176.13552856 -70.06329346 175.13552856 C-70.15194553 172.25119036 -70.17850642 169.39090699 -70.16094971 166.50662231 C-70.15953476 165.64239151 -70.15811981 164.77816071 -70.15666199 163.88774109 C-70.15104584 161.11613564 -70.13849065 158.34460976 -70.12579346 155.57302856 C-70.12078053 153.69868077 -70.11621727 151.82433171 -70.11212158 149.94998169 C-70.10107117 145.34513313 -70.08379575 140.74034435 -70.06329346 136.13552856 C-70.84954102 135.99002563 -71.63578857 135.84452271 -72.44586182 135.6946106 C-77.73299419 134.56528188 -81.11980484 131.27255331 -84.50079346 127.19802856 C-87.29698153 121.61786284 -86.95575695 115.15795399 -86.06329346 109.13552856 C-83.46821958 102.64325893 -79.39093721 98.88148718 -73.06329346 96.13552856 C-72.07329346 96.13552856 -71.08329346 96.13552856 -70.06329346 96.13552856 C-70.07114868 94.37124512 -70.07114868 94.37124512 -70.0791626 92.57131958 C-70.09721008 88.22350826 -70.10872453 83.87570027 -70.1182251 79.52786255 C-70.1232659 77.64309127 -70.13009844 75.75832392 -70.13873291 73.87356567 C-70.15080963 71.17051221 -70.15652414 68.46751026 -70.16094971 65.76443481 C-70.16611099 64.91651871 -70.17127228 64.0686026 -70.17658997 63.19499207 C-70.1767854 61.17481788 -70.12535556 59.15474922 -70.06329346 57.13552856 C-69.06329346 56.13552856 -69.06329346 56.13552856 -66.10406494 56.02200317 C-64.81057129 56.02723999 -63.51707764 56.03247681 -62.18438721 56.03787231 C-61.15439354 56.03999474 -61.15439354 56.03999474 -60.10359192 56.04216003 C-57.90261545 56.04777377 -55.70173937 56.0603285 -53.50079346 56.07302856 C-52.01186263 56.0780418 -50.52293022 56.08260501 -49.03399658 56.08670044 C-45.37706271 56.09774764 -41.72018787 56.11502144 -38.06329346 56.13552856 C-38.06853027 54.83816772 -38.07376709 53.54080688 -38.0791626 52.20413208 C-38.09720815 47.40905441 -38.10872383 42.61397977 -38.1182251 37.81887817 C-38.12326634 35.74009701 -38.1300992 33.6613194 -38.13873291 31.58255005 C-38.15080768 28.60150271 -38.1565237 25.62050207 -38.16094971 22.63943481 C-38.16869164 21.23631798 -38.16869164 21.23631798 -38.17658997 19.80485535 C-38.1766655 18.94403854 -38.17674103 18.08322174 -38.17681885 17.19631958 C-38.17903946 16.43464981 -38.18126007 15.67298004 -38.18354797 14.88822937 C-38.06329346 13.13552856 -38.06329346 13.13552856 -37.06329346 12.13552856 C-34.77177928 12.04761881 -32.47756821 12.02858818 -30.18438721 12.03787231 C-29.15439354 12.03999474 -29.15439354 12.03999474 -28.10359192 12.04216003 C-25.90261545 12.04777377 -23.70173937 12.0603285 -21.50079346 12.07302856 C-20.01186263 12.0780418 -18.52293022 12.08260501 -17.03399658 12.08670044 C-13.37706271 12.09774764 -9.72018787 12.11502144 -6.06329346 12.13552856 C-6.07489502 11.35306763 -6.08649658 10.57060669 -6.09844971 9.76443481 C-6.10747314 8.75252075 -6.11649658 7.74060669 -6.12579346 6.69802856 C-6.13739502 5.68869263 -6.14899658 4.67935669 -6.16094971 3.63943481 C-5.98651179 -0.83315346 -3.95969706 0.01701475 0 0 Z M-30.06329346 20.13552856 C-30.06329346 32.01552856 -30.06329346 43.89552856 -30.06329346 56.13552856 C-22.14329346 56.13552856 -14.22329346 56.13552856 -6.06329346 56.13552856 C-5.73329346 52.50552856 -5.40329346 48.87552856 -5.06329346 45.13552856 C6.48670654 44.80552856 18.03670654 44.47552856 29.93670654 44.13552856 C29.93670654 40.17552856 29.93670654 36.21552856 29.93670654 32.13552856 C12.61170654 31.64052856 12.61170654 31.64052856 -5.06329346 31.13552856 C-5.39329346 27.50552856 -5.72329346 23.87552856 -6.06329346 20.13552856 C-13.98329346 20.13552856 -21.90329346 20.13552856 -30.06329346 20.13552856 Z M73.93670654 20.13552856 C73.60670654 23.76552856 73.27670654 27.39552856 72.93670654 31.13552856 C55.61170654 31.63052856 55.61170654 31.63052856 37.93670654 32.13552856 C37.93670654 36.09552856 37.93670654 40.05552856 37.93670654 44.13552856 C49.48670654 44.46552856 61.03670654 44.79552856 72.93670654 45.13552856 C72.93670654 55.03552856 72.93670654 64.93552856 72.93670654 75.13552856 C55.61170654 75.63052856 55.61170654 75.63052856 37.93670654 76.13552856 C37.93670654 87.27059571 39.91922367 91.8539843 46.81170654 99.76052856 C47.32094666 100.35114075 47.83018677 100.94175293 48.3548584 101.55026245 C56.77645874 110.65057472 66.09900696 113.17228947 78.12705612 113.7448616 C95.4124173 114.35034167 112.69785961 113.30071926 129.93670654 112.13552856 C129.93670654 101.57552856 129.93670654 91.01552856 129.93670654 80.13552856 C126.63670654 78.48552856 123.33670654 76.83552856 119.93670654 75.13552856 C114.64800415 69.31795594 114.13551519 64.25400133 114.46795654 56.48318481 C115.14106828 51.67604513 116.31894376 48.43524626 119.93670654 45.13552856 C123.20485564 43.10478554 126.37611388 41.65471477 129.93670654 40.13552856 C129.93670654 33.53552856 129.93670654 26.93552856 129.93670654 20.13552856 C111.45670654 20.13552856 92.97670654 20.13552856 73.93670654 20.13552856 Z M-62.06329346 64.13552856 C-62.06329346 74.69552856 -62.06329346 85.25552856 -62.06329346 96.13552856 C-58.76329346 97.78552856 -55.46329346 99.43552856 -52.06329346 101.13552856 C-46.77459107 106.95310119 -46.26210211 112.0170558 -46.59454346 119.78787231 C-47.32759747 125.0230997 -48.46743828 127.18008787 -52.06329346 131.13552856 C-55.36329346 132.78552856 -58.66329346 134.43552856 -62.06329346 136.13552856 C-62.06329346 146.69552856 -62.06329346 157.25552856 -62.06329346 168.13552856 C-43.58329346 168.13552856 -25.10329346 168.13552856 -6.06329346 168.13552856 C-5.73329346 164.50552856 -5.40329346 160.87552856 -5.06329346 157.13552856 C6.48670654 156.80552856 18.03670654 156.47552856 29.93670654 156.13552856 C30.55675835 147.05007286 30.55675835 147.05007286 26.22909546 141.03845215 C25.69174774 140.52134674 25.15440002 140.00424133 24.60076904 139.47146606 C24.04738861 138.90851837 23.49400818 138.34557068 22.92385864 137.76556396 C21.75403597 136.58897469 20.5716405 135.42476563 19.37762451 134.2727356 C17.56480342 132.51353384 15.81165876 130.70721299 14.05780029 128.88943481 C8.27219836 122.8392485 8.27219836 122.8392485 0.85369873 119.36697388 C-1.59426643 119.36265648 -3.69651969 119.53284339 -6.06329346 120.13552856 C-6.06329346 117.49552856 -6.06329346 114.85552856 -6.06329346 112.13552856 C-5.49948975 112.2790979 -4.93568604 112.42266724 -4.35479736 112.57058716 C0.48874134 113.24230465 3.13575713 112.69434721 7.19940186 109.85916138 C10.2196985 107.25045043 13.02950184 104.4473973 15.79949951 101.57644653 C17.55870126 99.76362544 19.36502212 98.01048078 21.18280029 96.25662231 C22.32534295 95.10747085 23.46477922 93.95522074 24.60076904 92.79959106 C25.40679062 92.02393295 25.40679062 92.02393295 26.22909546 91.23260498 C31.17681015 85.96547221 29.93670654 84.47649634 29.93670654 76.13552856 C18.38670654 75.80552856 6.83670654 75.47552856 -5.06329346 75.13552856 C-5.55829346 69.69052856 -5.55829346 69.69052856 -6.06329346 64.13552856 C-24.54329346 64.13552856 -43.02329346 64.13552856 -62.06329346 64.13552856 Z M54.53826904 125.47146606 C52.36856343 127.8009046 50.48612428 130.01422247 48.56170654 132.51052856 C47.49117035 133.68665189 46.41166094 134.85466889 45.32342529 136.01443481 C44.30359002 137.1596016 43.29149648 138.31172228 42.28826904 139.47146606 C41.83875885 139.98857147 41.38924866 140.50567688 40.92611694 141.03845215 C36.82201671 146.39988689 37.93670654 148.36998872 37.93670654 156.13552856 C49.48670654 156.46552856 61.03670654 156.79552856 72.93670654 157.13552856 C72.93670654 167.03552856 72.93670654 176.93552856 72.93670654 187.13552856 C55.61170654 187.63052856 55.61170654 187.63052856 37.93670654 188.13552856 C37.93670654 192.09552856 37.93670654 196.05552856 37.93670654 200.13552856 C39.60733154 200.67177856 41.27795654 201.20802856 42.99920654 201.76052856 C51.87709957 205.04272778 55.98009476 209.24100947 59.99139404 217.76834106 C60.93670654 220.13552856 60.93670654 220.13552856 61.93670654 224.13552856 C75.13670654 224.13552856 88.33670654 224.13552856 101.93670654 224.13552856 C101.93670654 189.81552856 101.93670654 155.49552856 101.93670654 120.13552856 C67.64303618 117.0086116 67.64303618 117.0086116 54.53826904 125.47146606 Z " fill="#000000" transform="translate(94.06329345703125,-0.135528564453125)"/>
<path d="M0 0 C4.46341087 3.02306065 7.39332313 7.3440319 9.08203125 12.41015625 C9.82344625 19.25305206 9.17256746 24.75892315 5.08203125 30.41015625 C0.5103035 35.33259188 -4.0977587 37.47124173 -10.73046875 37.78515625 C-16.61125152 37.64513761 -21.11817477 36.01047382 -25.453125 31.984375 C-30.1821318 26.64873176 -31.40903907 21.93739642 -31.22265625 14.96875 C-30.61182087 9.83929904 -28.77615593 6.12626875 -24.9765625 2.6171875 C-17.03773873 -3.53795948 -9.13902402 -4.46547759 0 0 Z " fill="#F8DB7E" transform="translate(138.91796875,210.58984375)"/>
<path d="M0 0 C21.12 0 42.24 0 64 0 C64 5.28 64 10.56 64 16 C42.88 16 21.76 16 0 16 C0 10.72 0 5.44 0 0 Z " fill="#CF71FB" transform="translate(96,164)"/>
<path d="M0 0 C21.12 0 42.24 0 64 0 C64 5.28 64 10.56 64 16 C42.88 16 21.76 16 0 16 C0 10.72 0 5.44 0 0 Z " fill="#CF71FB" transform="translate(96,52)"/>
<path d="M0 0 C21.12 0 42.24 0 64 0 C64 5.28 64 10.56 64 16 C42.88 16 21.76 16 0 16 C0 10.72 0 5.44 0 0 Z " fill="#CF71FB" transform="translate(96,8)"/>
<path d="M0 0 C3.56764285 1.51376081 5.83706287 3.60513129 8.546875 6.3515625 C9.39121094 7.20234375 10.23554688 8.053125 11.10546875 8.9296875 C12.41451172 10.26386719 12.41451172 10.26386719 13.75 11.625 C14.63816406 12.5221875 15.52632812 13.419375 16.44140625 14.34375 C18.63216969 16.55807004 20.81812763 18.77692435 23 21 C21.48623919 24.56764285 19.39486871 26.83706287 16.6484375 29.546875 C15.79765625 30.39121094 14.946875 31.23554687 14.0703125 32.10546875 C13.18085938 32.97816406 12.29140625 33.85085937 11.375 34.75 C10.4778125 35.63816406 9.580625 36.52632812 8.65625 37.44140625 C6.44192996 39.63216969 4.22307565 41.81812763 2 44 C-1.56764285 42.48623919 -3.83706287 40.39486871 -6.546875 37.6484375 C-7.39121094 36.79765625 -8.23554687 35.946875 -9.10546875 35.0703125 C-9.97816406 34.18085938 -10.85085937 33.29140625 -11.75 32.375 C-12.63816406 31.4778125 -13.52632813 30.580625 -14.44140625 29.65625 C-16.63216969 27.44192996 -18.81812763 25.22307565 -21 23 C-19.48623919 19.43235715 -17.39486871 17.16293713 -14.6484375 14.453125 C-13.79765625 13.60878906 -12.946875 12.76445313 -12.0703125 11.89453125 C-11.18085937 11.02183594 -10.29140625 10.14914063 -9.375 9.25 C-8.4778125 8.36183594 -7.580625 7.47367187 -6.65625 6.55859375 C-4.44192996 4.36783031 -2.22307565 2.18187237 0 0 Z " fill="#F76336" transform="translate(127,94)"/>
<path d="M0 0 C4.08998175 1.80720124 6.66247347 4.19069751 9 8 C9.62819266 13.0255413 9.03320735 15.95572354 6 20 C3.24705395 23.21177039 0.96958591 23.86947882 -3.25 24.4375 C-8.1843364 23.86182742 -10.79803186 21.71753928 -14 18 C-15.23534045 14.29397865 -15.45528745 11.90246386 -15 8 C-10.91704021 1.64314568 -7.65816344 -0.51919752 0 0 Z " fill="#F7DA7E" transform="translate(31,104)"/>
<path d="M0 0 C4.08998175 1.80720124 6.66247347 4.19069751 9 8 C9.62819266 13.0255413 9.03320735 15.95572354 6 20 C3.24705395 23.21177039 0.96958591 23.86947882 -3.25 24.4375 C-8.1843364 23.86182742 -10.79803186 21.71753928 -14 18 C-15.23534045 14.29397865 -15.45528745 11.90246386 -15 8 C-10.91704021 1.64314568 -7.65816344 -0.51919752 0 0 Z " fill="#F7DA7E" transform="translate(231,48)"/>
<path d="M0 0 C2.64 0 5.28 0 8 0 C8 2.64 8 5.28 8 8 C5.36 8 2.72 8 0 8 C0 5.36 0 2.72 0 0 Z " fill="#000000" transform="translate(72,112)"/>
<path d="M0 0 C2.64 0 5.28 0 8 0 C8 2.64 8 5.28 8 8 C5.36 8 2.72 8 0 8 C0 5.36 0 2.72 0 0 Z " fill="#000000" transform="translate(56,112)"/>
</svg>
